<mxfile host="app.diagrams.net" modified="2024-04-02T11:24:50.340Z" agent="Mozilla/5.0 (Windows NT 10.0; Win64; x64) AppleWebKit/537.36 (KHTML, like Gecko) Chrome/123.0.0.0 Safari/537.36" version="24.2.1" etag="5Sntm-mj1_xS8A5n6LnZ" type="github">
  <diagram name="Страница — 1" id="GqRKsHbCCa5yOBF5CzD7">
    <mxGraphModel>
      <root>
        <mxCell id="0" />
        <mxCell id="1" parent="0" />
      </root>
    </mxGraphModel>
  </diagram>
</mxfile>
